<mxfile host="Electron" agent="Mozilla/5.0 (Windows NT 10.0; Win64; x64) AppleWebKit/537.36 (KHTML, like Gecko) draw.io/26.1.1 Chrome/132.0.6834.210 Electron/34.3.3 Safari/537.36" version="26.1.1">
  <diagram name="Page-1" id="9RqVALBnuscrKbyfOlgv">
    <mxGraphModel dx="1133" dy="1027" grid="1" gridSize="10" guides="1" tooltips="1" connect="1" arrows="1" fold="1" page="1" pageScale="1" pageWidth="827" pageHeight="1169" math="0" shadow="0">
      <root>
        <mxCell id="0" />
        <mxCell id="1" parent="0" />
        <mxCell id="eocqTGDShbwjYdcWQVA--1" value="Utilisateur" style="shape=umlActor;verticalLabelPosition=bottom;verticalAlign=top;html=1;outlineConnect=0;" vertex="1" parent="1">
          <mxGeometry x="40" y="320" width="40" height="80" as="geometry" />
        </mxCell>
        <mxCell id="eocqTGDShbwjYdcWQVA--2" value="" style="endArrow=none;html=1;rounded=0;" edge="1" parent="1" source="eocqTGDShbwjYdcWQVA--1" target="eocqTGDShbwjYdcWQVA--3">
          <mxGeometry width="50" height="50" relative="1" as="geometry">
            <mxPoint x="250" y="440" as="sourcePoint" />
            <mxPoint x="210" y="380" as="targetPoint" />
          </mxGeometry>
        </mxCell>
        <mxCell id="eocqTGDShbwjYdcWQVA--3" value="Voir la liste des jeux" style="ellipse;whiteSpace=wrap;html=1;" vertex="1" parent="1">
          <mxGeometry x="160" y="200" width="120" height="80" as="geometry" />
        </mxCell>
        <mxCell id="eocqTGDShbwjYdcWQVA--4" value="" style="endArrow=none;html=1;rounded=0;" edge="1" parent="1" source="eocqTGDShbwjYdcWQVA--1" target="eocqTGDShbwjYdcWQVA--5">
          <mxGeometry width="50" height="50" relative="1" as="geometry">
            <mxPoint x="250" y="380" as="sourcePoint" />
            <mxPoint x="300" y="330" as="targetPoint" />
          </mxGeometry>
        </mxCell>
        <mxCell id="eocqTGDShbwjYdcWQVA--5" value="S&#39;inscrire" style="ellipse;whiteSpace=wrap;html=1;" vertex="1" parent="1">
          <mxGeometry x="160" y="320" width="120" height="80" as="geometry" />
        </mxCell>
        <mxCell id="eocqTGDShbwjYdcWQVA--6" value="" style="endArrow=none;html=1;rounded=0;" edge="1" parent="1" source="eocqTGDShbwjYdcWQVA--5" target="eocqTGDShbwjYdcWQVA--7">
          <mxGeometry width="50" height="50" relative="1" as="geometry">
            <mxPoint x="420" y="360" as="sourcePoint" />
            <mxPoint x="470" y="310" as="targetPoint" />
          </mxGeometry>
        </mxCell>
        <mxCell id="eocqTGDShbwjYdcWQVA--7" value="Se connecter" style="ellipse;whiteSpace=wrap;html=1;" vertex="1" parent="1">
          <mxGeometry x="400" y="320" width="120" height="80" as="geometry" />
        </mxCell>
        <mxCell id="eocqTGDShbwjYdcWQVA--9" value="" style="endArrow=none;html=1;rounded=0;" edge="1" parent="1" source="eocqTGDShbwjYdcWQVA--7" target="eocqTGDShbwjYdcWQVA--10">
          <mxGeometry width="50" height="50" relative="1" as="geometry">
            <mxPoint x="600" y="410" as="sourcePoint" />
            <mxPoint x="460" y="500" as="targetPoint" />
          </mxGeometry>
        </mxCell>
        <mxCell id="eocqTGDShbwjYdcWQVA--10" value="Voir/modifier ses informations" style="ellipse;whiteSpace=wrap;html=1;" vertex="1" parent="1">
          <mxGeometry x="320" y="440" width="120" height="80" as="geometry" />
        </mxCell>
        <mxCell id="eocqTGDShbwjYdcWQVA--11" value="" style="endArrow=none;html=1;rounded=0;" edge="1" parent="1" source="eocqTGDShbwjYdcWQVA--7" target="eocqTGDShbwjYdcWQVA--12">
          <mxGeometry width="50" height="50" relative="1" as="geometry">
            <mxPoint x="520" y="510" as="sourcePoint" />
            <mxPoint x="650" y="350" as="targetPoint" />
          </mxGeometry>
        </mxCell>
        <mxCell id="eocqTGDShbwjYdcWQVA--12" value="Supprimer son compte" style="ellipse;whiteSpace=wrap;html=1;" vertex="1" parent="1">
          <mxGeometry x="480" y="200" width="120" height="80" as="geometry" />
        </mxCell>
        <mxCell id="eocqTGDShbwjYdcWQVA--15" value="Se deconnecter" style="ellipse;whiteSpace=wrap;html=1;" vertex="1" parent="1">
          <mxGeometry x="320" y="200" width="120" height="80" as="geometry" />
        </mxCell>
        <mxCell id="eocqTGDShbwjYdcWQVA--16" value="" style="endArrow=none;html=1;rounded=0;" edge="1" parent="1" source="eocqTGDShbwjYdcWQVA--7" target="eocqTGDShbwjYdcWQVA--15">
          <mxGeometry width="50" height="50" relative="1" as="geometry">
            <mxPoint x="550" y="580" as="sourcePoint" />
            <mxPoint x="600" y="530" as="targetPoint" />
          </mxGeometry>
        </mxCell>
        <mxCell id="eocqTGDShbwjYdcWQVA--17" value="" style="endArrow=none;html=1;rounded=0;" edge="1" parent="1" source="eocqTGDShbwjYdcWQVA--7" target="eocqTGDShbwjYdcWQVA--18">
          <mxGeometry width="50" height="50" relative="1" as="geometry">
            <mxPoint x="540" y="500" as="sourcePoint" />
            <mxPoint x="590" y="450" as="targetPoint" />
          </mxGeometry>
        </mxCell>
        <mxCell id="eocqTGDShbwjYdcWQVA--18" value="Mettre un jeu en favoris&amp;nbsp;" style="ellipse;whiteSpace=wrap;html=1;" vertex="1" parent="1">
          <mxGeometry x="480" y="440" width="120" height="80" as="geometry" />
        </mxCell>
        <mxCell id="eocqTGDShbwjYdcWQVA--19" value="" style="endArrow=none;html=1;rounded=0;" edge="1" parent="1" source="eocqTGDShbwjYdcWQVA--7" target="eocqTGDShbwjYdcWQVA--20">
          <mxGeometry width="50" height="50" relative="1" as="geometry">
            <mxPoint x="540" y="500" as="sourcePoint" />
            <mxPoint x="590" y="450" as="targetPoint" />
          </mxGeometry>
        </mxCell>
        <mxCell id="eocqTGDShbwjYdcWQVA--20" value="Ajouter un jeu dans une collecion" style="ellipse;whiteSpace=wrap;html=1;" vertex="1" parent="1">
          <mxGeometry x="640" y="440" width="120" height="80" as="geometry" />
        </mxCell>
      </root>
    </mxGraphModel>
  </diagram>
</mxfile>
